<svg width="96" height="96" viewBox="0 0 96 96" fill="none" xmlns="http://www.w3.org/2000/svg">
<rect width="96" height="96" rx="5" fill="url(#paint0_linear_198_504)"/>
<mask id="path-2-outside-1_198_504" maskUnits="userSpaceOnUse" x="25" y="21" width="46" height="53" fill="black">
<rect fill="white" x="25" y="21" width="46" height="53"/>
<path d="M29.336 72V64.416H52.76C54.296 64.416 55.608 64.096 56.696 63.456C57.848 62.752 58.712 61.856 59.288 60.768C59.864 59.68 60.152 58.528 60.152 57.312C60.152 56.16 59.896 55.104 59.384 54.144C58.872 53.12 58.072 52.32 56.984 51.744C55.96 51.104 54.712 50.784 53.24 50.784H43.352C40.216 50.784 37.464 50.272 35.096 49.248C32.792 48.16 30.968 46.592 29.624 44.544C28.344 42.496 27.704 40 27.704 37.056C27.704 34.56 28.312 32.256 29.528 30.144C30.744 28.032 32.44 26.336 34.616 25.056C36.792 23.712 39.288 23.04 42.104 23.04H64.664V30.624H42.968C40.984 30.624 39.416 31.232 38.264 32.448C37.112 33.664 36.536 35.104 36.536 36.768C36.536 38.368 37.112 39.776 38.264 40.992C39.48 42.144 41.176 42.72 43.352 42.72H52.76C56.28 42.72 59.224 43.296 61.592 44.448C64.024 45.536 65.848 47.136 67.064 49.248C68.344 51.36 68.984 53.952 68.984 57.024C68.984 59.648 68.344 62.112 67.064 64.416C65.784 66.656 63.992 68.48 61.688 69.888C59.448 71.296 56.824 72 53.816 72H29.336Z"/>
</mask>
<path d="M29.336 72V64.416H52.76C54.296 64.416 55.608 64.096 56.696 63.456C57.848 62.752 58.712 61.856 59.288 60.768C59.864 59.68 60.152 58.528 60.152 57.312C60.152 56.16 59.896 55.104 59.384 54.144C58.872 53.12 58.072 52.32 56.984 51.744C55.96 51.104 54.712 50.784 53.24 50.784H43.352C40.216 50.784 37.464 50.272 35.096 49.248C32.792 48.16 30.968 46.592 29.624 44.544C28.344 42.496 27.704 40 27.704 37.056C27.704 34.56 28.312 32.256 29.528 30.144C30.744 28.032 32.44 26.336 34.616 25.056C36.792 23.712 39.288 23.04 42.104 23.04H64.664V30.624H42.968C40.984 30.624 39.416 31.232 38.264 32.448C37.112 33.664 36.536 35.104 36.536 36.768C36.536 38.368 37.112 39.776 38.264 40.992C39.48 42.144 41.176 42.72 43.352 42.72H52.76C56.28 42.72 59.224 43.296 61.592 44.448C64.024 45.536 65.848 47.136 67.064 49.248C68.344 51.36 68.984 53.952 68.984 57.024C68.984 59.648 68.344 62.112 67.064 64.416C65.784 66.656 63.992 68.48 61.688 69.888C59.448 71.296 56.824 72 53.816 72H29.336Z" fill="white"/>
<path d="M29.336 72H27.336V74H29.336V72ZM29.336 64.416V62.416H27.336V64.416H29.336ZM56.696 63.456L57.71 65.1799L57.7245 65.1713L57.7389 65.1626L56.696 63.456ZM59.288 60.768L57.5204 59.8322L57.5204 59.8322L59.288 60.768ZM59.384 54.144L57.5951 55.0384L57.6069 55.062L57.6193 55.0852L59.384 54.144ZM56.984 51.744L55.924 53.44L55.9848 53.478L56.0482 53.5116L56.984 51.744ZM35.096 49.248L34.242 51.0565L34.2719 51.0706L34.3022 51.0837L35.096 49.248ZM29.624 44.544L27.928 45.604L27.9397 45.6228L27.9519 45.6413L29.624 44.544ZM34.616 25.056L35.63 26.7799L35.6486 26.7689L35.667 26.7576L34.616 25.056ZM64.664 23.04H66.664V21.04H64.664V23.04ZM64.664 30.624V32.624H66.664V30.624H64.664ZM38.264 32.448L36.8121 31.0725L36.8121 31.0725L38.264 32.448ZM38.264 40.992L36.8121 42.3675L36.8493 42.4067L36.8885 42.4439L38.264 40.992ZM61.592 44.448L60.7171 46.2465L60.746 46.2605L60.7753 46.2736L61.592 44.448ZM67.064 49.248L65.3308 50.2459L65.342 50.2654L65.3536 50.2846L67.064 49.248ZM67.064 64.416L68.8005 65.4083L68.8065 65.3978L68.8123 65.3873L67.064 64.416ZM61.688 69.888L60.6451 68.1814L60.6343 68.188L60.6237 68.1947L61.688 69.888ZM31.336 72V64.416H27.336V72H31.336ZM29.336 66.416H52.76V62.416H29.336V66.416ZM52.76 66.416C54.5754 66.416 56.2544 66.0362 57.71 65.1799L55.682 61.7321C54.9616 62.1558 54.0166 62.416 52.76 62.416V66.416ZM57.7389 65.1626C59.1667 64.29 60.2956 63.1393 61.0556 61.7038L57.5204 59.8322C57.1284 60.5727 56.5293 61.214 55.6531 61.7494L57.7389 65.1626ZM61.0556 61.7038C61.7822 60.3312 62.152 58.8584 62.152 57.312H58.152C58.152 58.1976 57.9458 59.0288 57.5204 59.8322L61.0556 61.7038ZM62.152 57.312C62.152 55.8516 61.8243 54.4696 61.1487 53.2028L57.6193 55.0852C57.9677 55.7384 58.152 56.4684 58.152 57.312H62.152ZM61.1729 53.2496C60.4601 51.8241 59.3469 50.732 57.9198 49.9764L56.0482 53.5116C56.7971 53.908 57.2839 54.4159 57.5951 55.0384L61.1729 53.2496ZM58.044 50.048C56.6389 49.1698 55.0045 48.784 53.24 48.784V52.784C54.4195 52.784 55.2811 53.0382 55.924 53.44L58.044 50.048ZM53.24 48.784H43.352V52.784H53.24V48.784ZM43.352 48.784C40.4316 48.784 37.9593 48.3072 35.8898 47.4123L34.3022 51.0837C36.9687 52.2368 40.0004 52.784 43.352 52.784V48.784ZM35.95 47.4395C33.965 46.5021 32.4297 45.1741 31.2961 43.4467L27.9519 45.6413C29.5063 48.0099 31.619 49.8179 34.242 51.0565L35.95 47.4395ZM31.32 43.484C30.2782 41.8171 29.704 39.7075 29.704 37.056H25.704C25.704 40.2925 26.4098 43.1749 27.928 45.604L31.32 43.484ZM29.704 37.056C29.704 34.9014 30.2244 32.9428 31.2612 31.1419L27.7948 29.1461C26.3996 31.5692 25.704 34.2186 25.704 37.056H29.704ZM31.2612 31.1419C32.2981 29.3411 33.7414 27.8908 35.63 26.7799L33.602 23.3321C31.1386 24.7812 29.1899 26.7229 27.7948 29.1461L31.2612 31.1419ZM35.667 26.7576C37.4957 25.6281 39.6205 25.04 42.104 25.04V21.04C38.9555 21.04 36.0883 21.7959 33.565 23.3544L35.667 26.7576ZM42.104 25.04H64.664V21.04H42.104V25.04ZM62.664 23.04V30.624H66.664V23.04H62.664ZM64.664 28.624H42.968V32.624H64.664V28.624ZM42.968 28.624C40.5446 28.624 38.4112 29.3846 36.8121 31.0725L39.7159 33.8235C40.4208 33.0794 41.4234 32.624 42.968 32.624V28.624ZM36.8121 31.0725C35.3108 32.6573 34.536 34.5885 34.536 36.768H38.536C38.536 35.6195 38.9132 34.6707 39.7159 33.8235L36.8121 31.0725ZM34.536 36.768C34.536 38.9056 35.3264 40.7992 36.8121 42.3675L39.7159 39.6165C38.8976 38.7528 38.536 37.8304 38.536 36.768H34.536ZM36.8885 42.4439C38.5769 44.0434 40.8225 44.72 43.352 44.72V40.72C41.5295 40.72 40.3831 40.2446 39.6395 39.5401L36.8885 42.4439ZM43.352 44.72H52.76V40.72H43.352V44.72ZM52.76 44.72C56.0742 44.72 58.6974 45.2639 60.7171 46.2465L62.4669 42.6495C59.7506 41.3281 56.4858 40.72 52.76 40.72V44.72ZM60.7753 46.2736C62.8599 47.2062 64.3451 48.5339 65.3308 50.2459L68.7972 48.2501C67.3509 45.738 65.1881 43.8658 62.4087 42.6224L60.7753 46.2736ZM65.3536 50.2846C66.403 52.0161 66.984 54.2289 66.984 57.024H70.984C70.984 53.6751 70.285 50.7039 68.7744 48.2114L65.3536 50.2846ZM66.984 57.024C66.984 59.3065 66.4314 61.4364 65.3157 63.4447L68.8123 65.3873C70.2566 62.7876 70.984 59.9895 70.984 57.024H66.984ZM65.3275 63.4237C64.2227 65.3571 62.6753 66.9408 60.6451 68.1814L62.7309 71.5946C65.3087 70.0192 67.3453 67.9549 68.8005 65.4083L65.3275 63.4237ZM60.6237 68.1947C58.7445 69.3759 56.5003 70 53.816 70V74C57.1477 74 60.1515 73.2161 62.7523 71.5813L60.6237 68.1947ZM53.816 70H29.336V74H53.816V70Z" fill="white" mask="url(#path-2-outside-1_198_504)"/>
<defs>
<linearGradient id="paint0_linear_198_504" x1="48" y1="0" x2="48" y2="96" gradientUnits="userSpaceOnUse">
<stop stop-color="#54BD95"/>
<stop offset="1" stop-color="#3CA87F"/>
</linearGradient>
</defs>
</svg>
